<?xml version="1.0" encoding="UTF-8"?>
<svg width="800px" height="260px" viewBox="0 0 800 260" version="1.1" xmlns="http://www.w3.org/2000/svg" xmlns:xlink="http://www.w3.org/1999/xlink">
    <!-- Generator: Sketch 63 (92445) - https://sketch.com -->
    <title>auxiliary-color</title>
    <desc>Created with Sketch.</desc>
    <g id="auxiliary-color" stroke="none" stroke-width="1" fill="none" fill-rule="evenodd">
        <rect fill="#FFFFFF" x="0" y="0" width="800" height="260"></rect>
        <g id="Swatch:-#F95138-Copy-2" transform="translate(610.000000, 40.000000)">
            <path d="M179.5,0.5 L0.5,0.5 L0.5,179.5 L179.5,179.5 L179.5,0.5 Z" id="border" stroke="#DEDEDE"></path>
            <polygon id="#F95138" fill="#3980EA" points="0 0 180 0 180 130 0 130"></polygon>
            <text id="#F95138" font-family="PingFangSC-Regular, PingFang SC" font-size="13" font-weight="normal" fill="#777777">
                <tspan x="8" y="160">#3980EA</tspan>
            </text>
        </g>
        <g id="Swatch:-#353B50" transform="translate(210.000000, 40.000000)">
            <path d="M179.5,0.5 L0.5,0.5 L0.5,179.5 L179.5,179.5 L179.5,0.5 Z" id="border" stroke="#DEDEDE"></path>
            <polygon id="#353B50" fill="#FBAD14" points="0 0 180 0 180 130 0 130"></polygon>
            <text id="#FBAD14" font-family="PingFangSC-Regular, PingFang SC" font-size="13" font-weight="normal" fill="#777777">
                <tspan x="8" y="160">#FBAD14</tspan>
            </text>
        </g>
        <g id="Swatch:-#F95138-Copy-4" transform="translate(10.000000, 40.000000)">
            <path d="M179.5,0.5 L0.5,0.5 L0.5,179.5 L179.5,179.5 L179.5,0.5 Z" id="border" stroke="#DEDEDE"></path>
            <polygon id="#F95138" fill="#FF4D4F" points="0 0 180 0 180 130 0 130"></polygon>
            <text id="#F95138" font-family="PingFangSC-Regular, PingFang SC" font-size="13" font-weight="normal" fill="#777777">
                <tspan x="8" y="160">#FF4D4F</tspan>
            </text>
        </g>
        <g id="Swatch:-#69718D" transform="translate(410.000000, 40.000000)">
            <path d="M179.5,0.5 L0.5,0.5 L0.5,179.5 L179.5,179.5 L179.5,0.5 Z" id="border" stroke="#DEDEDE"></path>
            <polygon id="#69718D" fill="#2CBF77" points="0 0 180 0 180 130 0 130"></polygon>
            <text id="#69718D" font-family="PingFangSC-Regular, PingFang SC" font-size="13" font-weight="normal" fill="#777777">
                <tspan x="8" y="160">#2CBF77</tspan>
            </text>
        </g>
    </g>
</svg>