<?xml version="1.0" encoding="UTF-8"?>
<svg width="800px" height="268px" viewBox="0 0 800 268" version="1.1" xmlns="http://www.w3.org/2000/svg" xmlns:xlink="http://www.w3.org/1999/xlink">
    <!-- Generator: Sketch 63 (92445) - https://sketch.com -->
    <title>input_box</title>
    <desc>Created with Sketch.</desc>
    <defs>
        <path d="M17.608667,16.7096924 L13.9828027,13.0855908 C14.9540479,11.9133984 15.5375,10.4098193 15.5375,8.76875 C15.5375,5.03007324 12.5074268,2 8.76875,2 C5.03007324,2 2,5.03007324 2,8.76875 C2,12.5074268 5.03007324,15.5375 8.76875,15.5375 C10.4098193,15.5375 11.9133984,14.9540479 13.0855908,13.9828027 L16.7114551,17.608667 C16.8348438,17.7320557 16.9970117,17.79375 17.1609424,17.79375 C17.324873,17.79375 17.4852783,17.7320557 17.6104297,17.608667 C17.8554443,17.360127 17.8554443,16.9582324 17.608667,16.7096924 Z M10.9086621,13.836499 C10.2317871,14.1238184 9.51260742,14.2683594 8.76875,14.2683594 C8.02489258,14.2683594 7.30571289,14.1238184 6.62883789,13.836499 C5.97487793,13.5597559 5.3861377,13.1631494 4.88024414,12.6572559 C4.37435059,12.1513623 3.97774414,11.5626221 3.70100098,10.9086621 C3.41368164,10.2317871 3.26914063,9.51260742 3.26914063,8.76875 C3.26914063,8.02489258 3.41368164,7.30571289 3.70100098,6.62883789 C3.97774414,5.97487793 4.37435059,5.3861377 4.88024414,4.88024414 C5.3861377,4.37435059 5.97487793,3.97774414 6.62883789,3.70100098 C7.30571289,3.41368164 8.02489258,3.26914063 8.76875,3.26914063 C9.51260742,3.26914063 10.2317871,3.41368164 10.9086621,3.70100098 C11.5626221,3.97774414 12.1513623,4.37435059 12.6572559,4.88024414 C13.1631494,5.3861377 13.5597559,5.97487793 13.836499,6.62883789 C14.1238184,7.30571289 14.2683594,8.02489258 14.2683594,8.76875 C14.2683594,9.51260742 14.1238184,10.2317871 13.836499,10.9086621 C13.5597559,11.5626221 13.1631494,12.1513623 12.6572559,12.6572559 C12.1513623,13.1631494 11.5643848,13.5597559 10.9086621,13.836499 Z" id="path-1"></path>
        <path d="M17.608667,16.7096924 L13.9828027,13.0855908 C14.9540479,11.9133984 15.5375,10.4098193 15.5375,8.76875 C15.5375,5.03007324 12.5074268,2 8.76875,2 C5.03007324,2 2,5.03007324 2,8.76875 C2,12.5074268 5.03007324,15.5375 8.76875,15.5375 C10.4098193,15.5375 11.9133984,14.9540479 13.0855908,13.9828027 L16.7114551,17.608667 C16.8348438,17.7320557 16.9970117,17.79375 17.1609424,17.79375 C17.324873,17.79375 17.4852783,17.7320557 17.6104297,17.608667 C17.8554443,17.360127 17.8554443,16.9582324 17.608667,16.7096924 Z M10.9086621,13.836499 C10.2317871,14.1238184 9.51260742,14.2683594 8.76875,14.2683594 C8.02489258,14.2683594 7.30571289,14.1238184 6.62883789,13.836499 C5.97487793,13.5597559 5.3861377,13.1631494 4.88024414,12.6572559 C4.37435059,12.1513623 3.97774414,11.5626221 3.70100098,10.9086621 C3.41368164,10.2317871 3.26914063,9.51260742 3.26914063,8.76875 C3.26914063,8.02489258 3.41368164,7.30571289 3.70100098,6.62883789 C3.97774414,5.97487793 4.37435059,5.3861377 4.88024414,4.88024414 C5.3861377,4.37435059 5.97487793,3.97774414 6.62883789,3.70100098 C7.30571289,3.41368164 8.02489258,3.26914063 8.76875,3.26914063 C9.51260742,3.26914063 10.2317871,3.41368164 10.9086621,3.70100098 C11.5626221,3.97774414 12.1513623,4.37435059 12.6572559,4.88024414 C13.1631494,5.3861377 13.5597559,5.97487793 13.836499,6.62883789 C14.1238184,7.30571289 14.2683594,8.02489258 14.2683594,8.76875 C14.2683594,9.51260742 14.1238184,10.2317871 13.836499,10.9086621 C13.5597559,11.5626221 13.1631494,12.1513623 12.6572559,12.6572559 C12.1513623,13.1631494 11.5643848,13.5597559 10.9086621,13.836499 Z" id="path-3"></path>
    </defs>
    <g id="input_box" stroke="none" stroke-width="1" fill="none" fill-rule="evenodd">
        <rect fill="#FFFFFF" x="0" y="0" width="800" height="268"></rect>
        <g id="编组-2" transform="translate(20.000000, 68.000000)">
            <rect id="Bg" stroke="#D9D9D9" fill="#FFFFFF" x="0.5" y="0.5" width="174" height="31" rx="4"></rect>
            <text id="Text" font-family="PingFangSC-Regular, PingFang SC" font-size="14" font-weight="normal" line-spacing="22" fill="#999999">
                <tspan x="12" y="20">请输入内容</tspan>
            </text>
        </g>
        <text id="基础输入框" font-family="PingFangSC-Semibold, PingFang SC" font-size="14" font-weight="500" fill="#333333">
            <tspan x="20" y="55">基础输入框</tspan>
        </text>
        <g id="编组-2" transform="translate(20.000000, 148.000000)">
            <rect id="Bg" stroke="#D9D9D9" fill="#FFFFFF" x="0.5" y="0.5" width="459" height="79" rx="4"></rect>
            <text id="Text" font-family="PingFangSC-Regular, PingFang SC" font-size="14" font-weight="normal" line-spacing="22" fill="#999999">
                <tspan x="12" y="20">请输入内容</tspan>
            </text>
        </g>
        <text id="基础文本框" font-family="PingFangSC-Semibold, PingFang SC" font-size="14" font-weight="500" fill="#333333">
            <tspan x="20" y="135">基础文本框</tspan>
        </text>
        <g id="编组-2" transform="translate(215.000000, 68.000000)">
            <rect id="Bg" stroke="#D9D9D9" fill="#EEF2F5" x="0.5" y="0.5" width="174" height="31" rx="4"></rect>
            <text id="Text" font-family="PingFangSC-Regular, PingFang SC" font-size="14" font-weight="normal" line-spacing="22" fill="#999999">
                <tspan x="12" y="20">请输入内容</tspan>
            </text>
        </g>
        <text id="禁用状态" font-family="PingFangSC-Semibold, PingFang SC" font-size="14" font-weight="500" fill="#333333">
            <tspan x="215" y="55">禁用状态</tspan>
        </text>
        <g id="编组-2" transform="translate(410.000000, 68.000000)">
            <rect id="Bg" stroke="#D9D9D9" fill="#FFFFFF" x="0.5" y="0.5" width="174" height="31" rx="4"></rect>
            <text id="Text" font-family="PingFangSC-Regular, PingFang SC" font-size="14" font-weight="normal" line-spacing="22" fill="#999999">
                <tspan x="12" y="20">请输入内容</tspan>
            </text>
            <g id="Group" transform="translate(143.000000, 6.000000)">
                <rect id="Rectangle" x="0" y="0" width="20" height="20"></rect>
                <mask id="mask-2" fill="white">
                    <use xlink:href="#path-1"></use>
                </mask>
                <use id="Mask" fill-opacity="0.25" fill="#000000" fill-rule="nonzero" xlink:href="#path-1"></use>
            </g>
        </g>
        <g id="编组-2" transform="translate(605.000000, 68.000000)">
            <rect id="Bg" stroke="#D9D9D9" fill="#FFFFFF" x="0.5" y="0.5" width="174" height="31" rx="4"></rect>
            <text id="Text" font-family="PingFangSC-Regular, PingFang SC" font-size="14" font-weight="normal" line-spacing="22" fill="#999999">
                <tspan x="44" y="20">请输入内容</tspan>
            </text>
            <g id="Group" transform="translate(12.000000, 6.000000)">
                <rect id="Rectangle" x="0" y="0" width="20" height="20"></rect>
                <mask id="mask-4" fill="white">
                    <use xlink:href="#path-3"></use>
                </mask>
                <use id="Mask" fill-opacity="0.25" fill="#000000" fill-rule="nonzero" xlink:href="#path-3"></use>
            </g>
        </g>
        <text id="带图标输入框" font-family="PingFangSC-Semibold, PingFang SC" font-size="14" font-weight="500" fill="#333333">
            <tspan x="410" y="55">带图标输入框</tspan>
        </text>
    </g>
</svg>