<?xml version="1.0" encoding="UTF-8"?>
<svg width="800px" height="386px" viewBox="0 0 800 386" version="1.1" xmlns="http://www.w3.org/2000/svg" xmlns:xlink="http://www.w3.org/1999/xlink">
    <!-- Generator: Sketch 63 (92445) - https://sketch.com -->
    <title>navigation</title>
    <desc>Created with Sketch.</desc>
    <g id="navigation" stroke="none" stroke-width="1" fill="none" fill-rule="evenodd">
        <rect fill="#FFFFFF" x="0" y="0" width="800" height="386"></rect>
        <rect id="矩形" stroke="#D9D9D9" fill="#FFFFFF" x="20" y="68" width="256" height="278" rx="2"></rect>
        <rect id="Rectangle-8-Copy-2" fill="#245AE6" x="20" y="120" width="256" height="40"></rect>
        <g id="Group-52-Copy-9" transform="translate(246.000000, 94.000000) scale(1, -1) translate(-246.000000, -94.000000) translate(240.000000, 88.000000)">
            <rect id="Rectangle-12" transform="translate(6.000000, 6.000000) scale(-1, -1) rotate(90.000000) translate(-6.000000, -6.000000) " x="0" y="0" width="12" height="12"></rect>
            <path d="M10.8581677,3.13271692 C11.0505556,3.30594378 11.0660887,3.60233311 10.8928619,3.79472103 L6.42482075,8.75970835 C6.39967731,8.80778806 6.36569754,8.85228587 6.32301148,8.89072058 C6.23697132,8.96819148 6.13013009,9.00790893 6.0228071,9.01093782 C6.01490667,9.01037607 6.00687597,9.01078093 5.99883912,9.01098034 C5.99043927,9.01081415 5.98207504,9.01040135 5.97372674,9.00976619 C5.86651933,9.00790893 5.7596781,8.96819148 5.67363794,8.89072058 C5.63095188,8.85228587 5.59697211,8.80778806 5.57182867,8.75970835 L1.10378753,3.79472103 C0.930560672,3.60233311 0.946093779,3.30594378 1.13848169,3.13271692 C1.33086961,2.95949006 1.62725895,2.97502317 1.8004858,3.16741109 L1.8004858,3.16741109 L5.99838267,7.82931206 L10.1961636,3.16741109 C10.3693905,2.97502317 10.6657798,2.95949006 10.8581677,3.13271692 Z" id="Combined-Shape" fill="#333333"></path>
        </g>
        <text id="菜单一" font-family="PingFangSC-Medium, PingFang SC" font-size="14" font-weight="400" line-spacing="22" fill="#666666">
            <tspan x="88" y="98">菜单一</tspan>
        </text>
        <text id="菜单二" font-family="PingFangSC-Regular, PingFang SC" font-size="14" font-weight="normal" line-spacing="22" fill="#666666">
            <tspan x="88" y="270">菜单二</tspan>
        </text>
        <text id="我的任务" font-family="PingFangSC-Regular, PingFang SC" font-size="14" font-weight="normal" line-spacing="22" fill="#FFFFFF">
            <tspan x="88" y="144">我的任务</tspan>
        </text>
        <text id="我的汇报" opacity="0.65" font-family="PingFangSC-Regular, PingFang SC" font-size="14" font-weight="normal" line-spacing="22" fill="#666666">
            <tspan x="88" y="184">我的汇报</tspan>
        </text>
        <text id="我的会议" opacity="0.65" font-family="PingFangSC-Regular, PingFang SC" font-size="14" font-weight="normal" line-spacing="22" fill="#666666">
            <tspan x="88" y="224">我的会议</tspan>
        </text>
        <g id="Group-52-Copy-10" transform="translate(240.000000, 260.000000)">
            <rect id="Rectangle-12" transform="translate(6.000000, 6.000000) scale(-1, -1) rotate(90.000000) translate(-6.000000, -6.000000) " x="0" y="0" width="12" height="12"></rect>
            <path d="M10.8581677,3.13271692 C11.0505556,3.30594378 11.0660887,3.60233311 10.8928619,3.79472103 L6.42482075,8.75970835 C6.39967731,8.80778806 6.36569754,8.85228587 6.32301148,8.89072058 C6.23697132,8.96819148 6.13013009,9.00790893 6.0228071,9.01093782 C6.01490667,9.01037607 6.00687597,9.01078093 5.99883912,9.01098034 C5.99043927,9.01081415 5.98207504,9.01040135 5.97372674,9.00976619 C5.86651933,9.00790893 5.7596781,8.96819148 5.67363794,8.89072058 C5.63095188,8.85228587 5.59697211,8.80778806 5.57182867,8.75970835 L1.10378753,3.79472103 C0.930560672,3.60233311 0.946093779,3.30594378 1.13848169,3.13271692 C1.33086961,2.95949006 1.62725895,2.97502317 1.8004858,3.16741109 L1.8004858,3.16741109 L5.99838267,7.82931206 L10.1961636,3.16741109 C10.3693905,2.97502317 10.6657798,2.95949006 10.8581677,3.13271692 Z" id="Combined-Shape" fill="#999999"></path>
        </g>
        <g id="ico-/-24-/-user-/-account_circle" transform="translate(44.000000, 84.000000)" fill="#FFFFFF" fill-rule="nonzero">
            <path d="M10,0 C4.4771525,0 0,4.4771525 0,10 C0,15.5228475 4.4771525,20 10,20 C15.5228475,20 20,15.5228475 20,10 C20,7.3478351 18.9464316,4.80429597 17.0710678,2.92893219 C15.195704,1.0535684 12.6521649,0 10,0 Z M10,3 C11.6568542,3 13,4.34314575 13,6 C13,7.65685425 11.6568542,9 10,9 C8.34314575,9 7,7.65685425 7,6 C7,4.34314575 8.34314575,3 10,3 Z M15.62,14.16 C14.2994371,15.9383866 12.2150723,16.9867998 10,16.9867998 C7.78492772,16.9867998 5.70056287,15.9383866 4.38,14.16 C4.17921358,13.8632741 4.15251075,13.4818052 4.31,13.16 L4.52,12.72 C5.01488061,11.6709956 6.07012266,11.0012479 7.23,11 L12.77,11 C13.9135792,11.0015227 14.9568257,11.653067 15.46,12.68 L15.69,13.15 C15.8514056,13.4744787 15.8246246,13.8608897 15.62,14.16 Z" id="Icon-color"></path>
        </g>
        <rect id="矩形" fill="#999999" x="44" y="84" width="20" height="20" rx="2"></rect>
        <rect id="矩形" fill="#999999" x="44" y="256" width="20" height="20" rx="2"></rect>
        <rect id="矩形" fill="#999999" x="44" y="310" width="20" height="20" rx="2"></rect>
        <text id="菜单三" font-family="PingFangSC-Regular, PingFang SC" font-size="14" font-weight="normal" line-spacing="22" fill="#666666">
            <tspan x="88" y="324">菜单三</tspan>
        </text>
        <g id="Group-52-Copy-11" transform="translate(240.000000, 314.000000)">
            <rect id="Rectangle-12" transform="translate(6.000000, 6.000000) scale(-1, -1) rotate(90.000000) translate(-6.000000, -6.000000) " x="0" y="0" width="12" height="12"></rect>
            <path d="M10.8581677,3.13271692 C11.0505556,3.30594378 11.0660887,3.60233311 10.8928619,3.79472103 L6.42482075,8.75970835 C6.39967731,8.80778806 6.36569754,8.85228587 6.32301148,8.89072058 C6.23697132,8.96819148 6.13013009,9.00790893 6.0228071,9.01093782 C6.01490667,9.01037607 6.00687597,9.01078093 5.99883912,9.01098034 C5.99043927,9.01081415 5.98207504,9.01040135 5.97372674,9.00976619 C5.86651933,9.00790893 5.7596781,8.96819148 5.67363794,8.89072058 C5.63095188,8.85228587 5.59697211,8.80778806 5.57182867,8.75970835 L1.10378753,3.79472103 C0.930560672,3.60233311 0.946093779,3.30594378 1.13848169,3.13271692 C1.33086961,2.95949006 1.62725895,2.97502317 1.8004858,3.16741109 L1.8004858,3.16741109 L5.99838267,7.82931206 L10.1961636,3.16741109 C10.3693905,2.97502317 10.6657798,2.95949006 10.8581677,3.13271692 Z" id="Combined-Shape" fill="#999999"></path>
        </g>
        <text id="侧边导航栏" font-family="PingFangSC-Semibold, PingFang SC" font-size="14" font-weight="500" fill="#333333">
            <tspan x="20" y="55">侧边导航栏</tspan>
        </text>
        <path d="M298,68 L735,68 C736.104569,68 737,68.8954305 737,70 L737,132 L737,132 L296,132 L296,70 C296,68.8954305 296.895431,68 298,68 Z" id="矩形" stroke="#D9D9D9" fill="#FFFFFF"></path>
        <g id="ico-/-24-/-user-/-account_circle" transform="translate(320.000000, 84.000000)" fill="#FFFFFF" fill-rule="nonzero">
            <path d="M10,0 C4.4771525,0 0,4.4771525 0,10 C0,15.5228475 4.4771525,20 10,20 C15.5228475,20 20,15.5228475 20,10 C20,7.3478351 18.9464316,4.80429597 17.0710678,2.92893219 C15.195704,1.0535684 12.6521649,0 10,0 Z M10,3 C11.6568542,3 13,4.34314575 13,6 C13,7.65685425 11.6568542,9 10,9 C8.34314575,9 7,7.65685425 7,6 C7,4.34314575 8.34314575,3 10,3 Z M15.62,14.16 C14.2994371,15.9383866 12.2150723,16.9867998 10,16.9867998 C7.78492772,16.9867998 5.70056287,15.9383866 4.38,14.16 C4.17921358,13.8632741 4.15251075,13.4818052 4.31,13.16 L4.52,12.72 C5.01488061,11.6709956 6.07012266,11.0012479 7.23,11 L12.77,11 C13.9135792,11.0015227 14.9568257,11.653067 15.46,12.68 L15.69,13.15 C15.8514056,13.4744787 15.8246246,13.8608897 15.62,14.16 Z" id="Icon-color"></path>
        </g>
        <text id="顶部导航栏" font-family="PingFangSC-Semibold, PingFang SC" font-size="14" font-weight="500" fill="#333333">
            <tspan x="296" y="55">顶部导航栏</tspan>
        </text>
        <path d="M348,88 L492,88 C494.209139,88 496,89.790861 496,92 L496,132 L496,132 L344,132 L344,92 C344,89.790861 345.790861,88 348,88 Z" id="矩形" stroke="#D9D9D9" fill="#FFFFFF"></path>
        <rect id="矩形" fill="#999999" x="460" y="100" width="20" height="20" rx="2"></rect>
        <text id="菜单一" font-family="PingFangSC-Regular, PingFang SC" font-size="16" font-weight="normal" line-spacing="24" fill="#333333">
            <tspan x="360" y="115">菜单一</tspan>
        </text>
        <rect id="矩形" fill="#999999" x="612" y="100" width="20" height="20" rx="2"></rect>
        <text id="菜单二" font-family="PingFangSC-Regular, PingFang SC" font-size="16" font-weight="normal" line-spacing="24" fill="#333333">
            <tspan x="512" y="115">菜单二</tspan>
        </text>
    </g>
</svg>